<?xml version="1.0" encoding="utf-8"?>
<!-- Generator: Adobe Illustrator 25.2.1, SVG Export Plug-In . SVG Version: 6.00 Build 0)  -->
<svg version="1.1" id="Layer_1" xmlns="http://www.w3.org/2000/svg" xmlns:xlink="http://www.w3.org/1999/xlink" x="0px" y="0px"
	 viewBox="0 0 512 298" style="enable-background:new 0 0 512 298;" xml:space="preserve">
<style type="text/css">
	.st0{fill:#3D9244;}
	.st1{fill:#EDC223;}
	.st2{fill:#31276C;}
	.st3{fill:#FFFFFF;}
</style>
<g>
	<rect id="XMLID_305_" class="st0" width="512" height="298"/>
	<g>
		<polygon id="XMLID_304_" class="st1" points="78.9,149 256,262.1 433.1,149 256,35.9 		"/>
		<path id="XMLID_303_" class="st2" d="M330.7,149c0,41.2-33.5,74.7-74.7,74.7s-74.7-33.4-74.7-74.7c0-41.2,33.4-74.7,74.7-74.7
			C297.2,74.3,330.7,107.8,330.7,149"/>
		<path id="XMLID_1_" class="st3" d="M213.3,117c-8.7,0-17.3,0.6-25.6,1.8c-1.6,3.7-2.9,7.5-4,11.4c9.6-1.7,19.5-2.6,29.6-2.6
			c43.8,0,83.7,16.5,113.9,43.6c1.2-3.8,2.1-7.8,2.7-11.8C298.4,133,257.7,117,213.3,117"/>
	</g>
</g>
</svg>
