<?xml version="1.0" encoding="utf-8"?>
<!-- Generator: Adobe Illustrator 25.2.1, SVG Export Plug-In . SVG Version: 6.00 Build 0)  -->
<svg version="1.1" id="Camada_1" xmlns="http://www.w3.org/2000/svg" xmlns:xlink="http://www.w3.org/1999/xlink" x="0px" y="0px"
	 viewBox="0 0 512 512" style="enable-background:new 0 0 512 512;" xml:space="preserve">
<style type="text/css">
	.st0{fill-rule:evenodd;clip-rule:evenodd;fill:#0071BC;}
	.st1{fill:#0071BC;}
</style>
<g>
	<path class="st0" d="M277.3,182.7c0-10,4.8-14.2,9.7-14.2c4.7,0,30.8,0,30.8,0v-45.9h-41.9c-44.9,0-56.2,35.9-56.2,57.5v20.4h-25.6
		v34.8v16.4h25.6c0,61.9,0,134.4,0,134.4h57.6c0,0,0-72.5,0-134.4h34.9l1.7-20.1l3.1-31.1h-39.7V182.7z"/>
	<path class="st1" d="M437,74.9C390.7,28.6,326.6,0,256.1,0C185.3,0,121.3,28.6,75.1,75C28.7,121.3,0,185.2,0,255.9
		S28.6,390.6,75,437c46.2,46.3,110.3,75,180.9,75s134.6-28.6,181.1-75c46.3-46.3,75-110.3,75-181.1C512,185.2,483.4,121.3,437,74.9z
		 M422.8,422.9c-42.7,42.7-101.7,69-166.9,69s-124.2-26.4-167-69c-42.7-42.8-69-101.8-69-167S46.3,131.8,89,89.1
		C131.8,46.4,190.8,20,255.9,20s124.2,26.5,166.9,69.1s69.1,101.7,69.1,166.9C492,321.1,465.5,380.1,422.8,422.9z"/>
</g>
</svg>
