<?xml version="1.0" encoding="utf-8"?>
<!-- Generator: Adobe Illustrator 25.2.1, SVG Export Plug-In . SVG Version: 6.00 Build 0)  -->
<svg version="1.1" id="Camada_1" xmlns="http://www.w3.org/2000/svg" xmlns:xlink="http://www.w3.org/1999/xlink" x="0px" y="0px"
	 viewBox="0 0 512 512" style="enable-background:new 0 0 512 512;" xml:space="preserve">
<style type="text/css">
	.st0{fill:#5F0479;}
</style>
<path class="st0" d="M256,173.2c-45.7,0-82.8,37.1-82.8,82.8c0,45.8,37.1,82.8,82.8,82.8c45.8,0,82.8-37,82.8-82.8
	C338.7,210.3,301.8,173.2,256,173.2z M256,321.6c-36.2,0-65.5-29.3-65.5-65.6c0-36.2,29.3-65.6,65.5-65.6
	c36.3,0,65.6,29.4,65.6,65.6C321.6,292.3,292.3,321.6,256,321.6z"/>
<path class="st0" d="M323.7,128H188.4c-33.3,0-61.4,27-61.4,60.4v135.4c0,33.3,28.2,57.1,61.4,57.1h135.4
	c33.5,0,61.3-23.8,61.3-57.1V188.4C385.1,155,357.1,128,323.7,128z M370.1,323.7c0,25.1-21.3,42.1-46.4,42.1H188.4
	c-25.1,0-45.4-17.1-45.4-42.1V188.4c0-25.1,20.4-45.4,45.4-45.4h135.4c25.1,0,46.4,20.4,46.4,45.4V323.7z"/>
<path class="st0" d="M337.2,162c-7.4,0-13.3,6-13.3,13.3c0,7.4,6,13.3,13.3,13.3s13.3-6,13.3-13.3C350.5,168,344.5,162,337.2,162z"
	/>
<path class="st0" d="M437,74.9C390.7,28.6,326.6,0,256.1,0C185.3,0,121.3,28.6,75.1,75C28.7,121.3,0,185.2,0,255.9
	S28.6,390.6,75,437c46.2,46.3,110.3,75,180.9,75s134.6-28.6,181.1-75c46.3-46.3,75-110.3,75-181.1C512,185.2,483.4,121.3,437,74.9z
	 M422.8,422.9c-42.7,42.7-101.7,69-166.9,69s-124.2-26.4-167-69c-42.7-42.8-69-101.8-69-167S46.3,131.8,89,89.1
	C131.8,46.4,190.8,20,255.9,20s124.2,26.5,166.9,69.1s69.1,101.7,69.1,166.9C492,321.1,465.5,380.1,422.8,422.9z"/>
</svg>
