<?xml version="1.0" encoding="utf-8"?>
<!-- Generator: Adobe Illustrator 25.2.1, SVG Export Plug-In . SVG Version: 6.00 Build 0)  -->
<svg version="1.1" id="Camada_1" xmlns="http://www.w3.org/2000/svg" xmlns:xlink="http://www.w3.org/1999/xlink" x="0px" y="0px"
	 viewBox="0 0 512 512" style="enable-background:new 0 0 512 512;" xml:space="preserve">
<style type="text/css">
	.st0{fill:#5F0479;}
	.st1{fill:#FFFFFF;}
</style>
<g id="Layer_1">
</g>
<circle class="st0" cx="256" cy="256" r="256"/>
<path class="st1" d="M256,173.2c-45.7,0-82.8,37.1-82.8,82.8c0,45.8,37.1,82.8,82.8,82.8c45.8,0,82.8-37,82.8-82.8
	C338.7,210.3,301.8,173.2,256,173.2z M256,321.6c-36.2,0-65.5-29.3-65.5-65.6c0-36.2,29.3-65.6,65.5-65.6
	c36.3,0,65.6,29.4,65.6,65.6C321.6,292.3,292.3,321.6,256,321.6z"/>
<path class="st1" d="M323.7,128H188.4c-33.3,0-61.4,27-61.4,60.4v135.4c0,33.3,28.2,57.1,61.4,57.1h135.4
	c33.5,0,61.3-23.8,61.3-57.1V188.4C385.1,155,357.1,128,323.7,128z M370.1,323.7c0,25.1-21.3,42.1-46.4,42.1H188.4
	c-25.1,0-45.4-17.1-45.4-42.1V188.4c0-25.1,20.4-45.4,45.4-45.4h135.4c25.1,0,46.4,20.4,46.4,45.4V323.7z"/>
<path class="st1" d="M337.2,162c-7.4,0-13.3,6-13.3,13.3c0,7.4,6,13.3,13.3,13.3s13.3-6,13.3-13.3C350.5,168,344.5,162,337.2,162z"
	/>
</svg>
