<?xml version="1.0" encoding="utf-8"?>
<!-- Generator: Adobe Illustrator 25.2.1, SVG Export Plug-In . SVG Version: 6.00 Build 0)  -->
<svg version="1.1" id="Camada_1" xmlns="http://www.w3.org/2000/svg" xmlns:xlink="http://www.w3.org/1999/xlink" x="0px" y="0px"
	 viewBox="0 0 512 512" style="enable-background:new 0 0 512 512;" xml:space="preserve">
<style type="text/css">
	.st0{fill:#F5B955;}
</style>
<g>
	<path class="st0" d="M186.3,247.3c-14.5,0-26.2,11.7-26.2,26.2s11.7,26,26.2,26c14.4,0,26-11.6,26-26
		C212.4,259,200.7,247.3,186.3,247.3z M186.3,290.8c-9.6,0-17.6-7.8-17.6-17.3c0-9.6,7.9-17.4,17.6-17.4c9.6,0,17.4,7.8,17.4,17.4
		C203.7,283,195.9,290.8,186.3,290.8z"/>
	<path class="st0" d="M186.3,264.7c-4.8,0-8.7,3.8-8.7,8.6c0,4.8,3.9,8.6,8.7,8.6c4.8,0,8.7-3.8,8.7-8.6
		C195.1,268.5,191.1,264.7,186.3,264.7z"/>
	<path class="st0" d="M386.7,210.1h-43.5c-26.4-25.6-52.3-35-87.3-35c-34.9,0-60.8,9.4-87.2,35h-43.5c0,0,0,14.4,17.6,18.5
		c-3.4,4.7-6.8,11-9.9,17.3c-4.4,8.6-7.7,18.9-7.7,27.4c0,35.8,25.2,60.9,61.1,60.9c20.3,0,40.2-11.3,52.3-25.8l17.3,25.9l17.4-25.9
		c12.1,14.6,32,25.9,52.3,25.9c35.8,0,61.1-25,61.1-60.8c0-8.1-3.1-17.4-7.3-25.9c-3.1-6.6-6.8-14.2-10.3-19
		C386.7,224.5,386.7,210.1,386.7,210.1z M186.3,317.1c-24.1,0-43.5-19.7-43.5-43.5c0-12.9,5.7-24.5,14.4-32.3
		c7.7-7,17.8-11.5,29-11.5c6.8,0,13,1.8,19,4.4c14.5,7.3,24.5,22.1,24.5,39.4C229.8,297.3,210.4,317.1,186.3,317.1z M255.9,299.6
		c0-25.2-11.5-50.1-28.1-66.9c-12.1-12.4-26.9-20.3-41.5-20.3c0,0,26-26.2,69.6-26.2s69.8,26.2,69.8,26.2
		c-14.8,0-29.8,7.9-41.8,20.4C267.5,249.8,255.9,274.6,255.9,299.6z M325.7,317.1c-24.1,0-43.5-19.7-43.5-43.5
		c0-17,9.6-31.8,23.8-38.9c6-3,12.5-4.8,19.7-4.8c11.9,0,22.4,4.8,30.2,12.4c8.3,8.1,13.3,19,13.3,31.5
		C369.1,297.3,349.7,317.1,325.7,317.1z"/>
	<path class="st0" d="M325.7,247.3c-14.4,0-26.2,11.7-26.2,26.2s11.7,26,26.2,26c14.5,0,26-11.6,26-26
		C351.7,259,340.1,247.3,325.7,247.3z M325.7,290.8c-9.6,0-17.4-7.8-17.4-17.3c0-9.6,7.8-17.4,17.4-17.4c9.6,0,17.6,7.8,17.6,17.4
		C343.2,283,335.3,290.8,325.7,290.8z"/>
	<path class="st0" d="M325.7,264.7c-4.8,0-8.7,3.8-8.7,8.6c0,4.8,3.9,8.6,8.7,8.6c4.8,0,8.7-3.8,8.7-8.6
		C334.4,268.5,330.5,264.7,325.7,264.7z"/>
	<path class="st0" d="M437,74.9C390.7,28.6,326.6,0,256.1,0C185.3,0,121.3,28.6,75.1,75C28.7,121.3,0,185.2,0,255.9
		S28.6,390.6,75,437c46.2,46.3,110.3,75,180.9,75s134.6-28.6,181.1-75c46.3-46.3,75-110.3,75-181.1C512,185.2,483.4,121.3,437,74.9z
		 M422.8,422.9c-42.7,42.7-101.7,69-166.9,69s-124.2-26.4-167-69c-42.7-42.8-69-101.8-69-167S46.3,131.8,89,89.1
		C131.8,46.4,190.8,20,255.9,20s124.2,26.5,166.9,69.1s69.1,101.7,69.1,166.9C492,321.1,465.5,380.1,422.8,422.9z"/>
</g>
</svg>
