<?xml version="1.0" encoding="utf-8"?>
<!-- Generator: Adobe Illustrator 25.2.1, SVG Export Plug-In . SVG Version: 6.00 Build 0)  -->
<svg version="1.1" id="Camada_1" xmlns="http://www.w3.org/2000/svg" xmlns:xlink="http://www.w3.org/1999/xlink" x="0px" y="0px"
	 viewBox="0 0 512 512" style="enable-background:new 0 0 512 512;" xml:space="preserve">
<style type="text/css">
	.st0{fill:#4CAF50;}
	.st1{fill:#FFFFFF;}
</style>
<circle class="st0" cx="256" cy="256" r="256"/>
<path class="st1" d="M317.1,278.4c-3.2-1.6-18.6-9.2-21.4-10.3c-3.1-0.9-5.1-1.6-7.3,1.7c-2,3.1-8.1,10-9.9,12.1
	c-1.8,2.2-3.7,2.5-6.6,1c-3.4-1.6-13.4-4.8-25.4-15.6c-9.5-8.3-15.9-18.5-17.6-21.4c-1.7-3.4-0.3-4.8,1.3-6.6
	c1.6-1.3,3.3-3.4,4.8-5.4c0.4-0.4,0.9-0.9,1.2-1.4c0.9-1.3,1.3-2.2,2-3.7c1.2-2.1,0.7-3.9-0.3-5.3c-0.5-1.6-6.9-17.2-9.6-23.3
	c-2.6-6.4-5.2-5.2-6.9-5.2c-2,0-3.9-0.3-6.1-0.3c-2.2,0-5.5,0.7-8.3,3.9c-3.1,3.1-11.2,10.5-11.2,26c0,3.5,0.7,7.3,1.8,10.5
	c3,11.2,10,20.2,11.1,21.7c1.6,2.1,21.7,34.6,53.7,47c32.2,12.5,32.2,8.2,37.9,7.8c5.7-0.4,18.6-7.4,21.2-14.8
	c2.6-7.3,2.6-13.4,1.7-14.8C322.3,280.8,320.2,279.7,317.1,278.4z"/>
<path class="st1" d="M258.3,125.4c-68.9,0-125.1,53.7-128,121.6c-0.3,1.7-0.3,3.7-0.3,5.5c0,24,6.8,46.5,18.5,65.7l-23.3,68.3
	l71.2-22.5c18.5,10,39.6,15.7,62,15.7c70.8,0,128.5-56.9,128.5-127.3c0-1.2-0.1-2-0.1-3.1C384.7,180.5,328,125.4,258.3,125.4z
	 M258.3,359.6c-21.9,0-42.2-6.5-59.2-17.7l-41.4,13.2l13.3-39.8c-12.9-17.6-20.6-39.4-20.6-62.8c0-3.5,0.1-6.8,0.5-10.3
	c5.3-54.3,51.4-96.7,107.3-96.7c56.7,0,103.3,43.5,107.5,98.7c0.3,2.9,0.3,5.7,0.3,8.3C366.2,311.5,317.8,359.6,258.3,359.6z"/>
</svg>
