<?xml version="1.0" encoding="utf-8"?>
<!-- Generator: Adobe Illustrator 25.2.1, SVG Export Plug-In . SVG Version: 6.00 Build 0)  -->
<svg version="1.1" id="Layer_1" xmlns="http://www.w3.org/2000/svg" xmlns:xlink="http://www.w3.org/1999/xlink" x="0px" y="0px"
	 viewBox="0 0 48 48" style="enable-background:new 0 0 48 48;" xml:space="preserve">
<style type="text/css">
	.st0{fill:#AAAAAA;}
</style>
<g>
	<path class="st0" d="M3.9,13.1c1.2,0.6,17.3,9.1,17.9,9.4C22.4,22.8,23,23,24,23s1.6-0.1,2.2-0.4c0.6-0.3,16.8-8.8,17.9-9.4
		c0.4-0.2,1.2-0.6,1.3-1c0.3-0.8,0-1.1-1.2-1.1H24H3.8c-1.2,0-1.5,0.3-1.2,1.1C2.7,12.5,3.5,12.9,3.9,13.1z"/>
	<path class="st0" d="M45.1,13.4c-0.9,0.4-8.7,5.8-13.8,9l8.7,9.4c0.2,0.2,0.3,0.4,0.2,0.6c-0.1,0.1-0.4,0.1-0.6-0.1l-10.4-8.5
		c-1.6,1-2.7,1.7-2.9,1.8C25.5,26,24.9,26,24.1,26c-0.8,0-1.4-0.1-2.2-0.4c-0.2-0.1-1.3-0.8-2.9-1.8L8.6,32.3
		c-0.2,0.2-0.5,0.3-0.6,0.1c-0.1-0.1,0-0.4,0.2-0.6l8.7-9.4c-5.2-3.2-13-8.6-13.9-9c-0.9-0.5-1,0.1-1,0.5c0,0.4,0,20.9,0,20.9
		C2,35.8,3.4,37,4.5,37h19.6h19.6c1,0,2.3-1.2,2.3-2.1c0,0,0-20.5,0-20.9C46,13.5,46.1,13,45.1,13.4z"/>
</g>
</svg>
