<?xml version="1.0" encoding="utf-8"?>
<!-- Generator: Adobe Illustrator 25.2.1, SVG Export Plug-In . SVG Version: 6.00 Build 0)  -->
<svg version="1.1" id="Camada_1" xmlns="http://www.w3.org/2000/svg" xmlns:xlink="http://www.w3.org/1999/xlink" x="0px" y="0px"
	 viewBox="0 0 48 48" style="enable-background:new 0 0 48 48;" xml:space="preserve">
<style type="text/css">
	.st0{fill:#AAAAAA;}
</style>
<path class="st0" d="M10.9,21.1C14.4,28,20,33.6,27,37.2l5.4-5.4c0.7-0.7,1.6-0.9,2.5-0.6c2.7,0.9,5.7,1.4,8.7,1.4
	c1.4,0,2.4,1.1,2.4,2.4v8.6c0,1.4-1.1,2.4-2.4,2.4C20.6,46,2,27.4,2,4.4C2,3.1,3.1,2,4.4,2H13c1.4,0,2.4,1.1,2.4,2.4
	c0,3,0.5,6,1.4,8.7c0.3,0.8,0.1,1.8-0.6,2.5L10.9,21.1z"/>
</svg>
